<svg width="64" height="64" viewBox="0 0 64 64" fill="none" xmlns="http://www.w3.org/2000/svg">
<g clip-path="url(#clip0_3_5)">
<path d="M32 64.0004C49.6731 64.0004 64 49.6735 64 32.0004C64 14.3273 49.6731 0.000383377 32 0.000383377C14.3269 0.000383377 0 14.3273 0 32.0004C0 49.6735 14.3269 64.0004 32 64.0004Z" fill="#9DE7F9"/>
<path d="M15.9365 29.2221C14.9823 30.838 14.1202 32.4543 13.6547 34.227H13.9269C14.3049 33.6454 14.7749 33.1386 15.1901 32.6326C15.0057 33.1635 14.829 33.6945 14.6672 34.227H50.6354C50.9939 32.8817 51.1676 31.5189 51.2446 30.1062C50.9962 30.9906 50.4986 31.8746 50.0014 32.6326C50.3744 30.3588 50.3744 27.9593 50.0014 25.6856C49.8771 26.4435 49.7529 27.3275 49.3795 28.0854C49.0065 25.6856 48.6335 23.2857 47.5148 21.1385C47.6391 21.8964 47.7636 22.7804 47.5148 23.5387C46.893 21.1385 45.4013 19.1177 43.9093 17.0966C44.0335 17.8545 44.4065 18.4859 44.5311 19.2442C43.039 17.2231 41.1743 15.4547 39.0608 13.9388C39.5581 14.5706 39.9311 15.202 40.3041 15.8334C38.1902 14.3176 35.9525 13.0548 33.466 12.1704C34.0878 12.8018 34.8335 13.1809 35.4549 13.8123C32.9688 12.8018 30.4819 12.2965 27.8711 12.0438C28.8656 12.1704 29.7358 12.8021 30.7307 13.1809C28.1199 12.676 25.5092 12.9283 23.0223 13.307C24.2656 13.307 25.3846 13.5597 26.6279 13.6858C24.1414 13.8123 21.6548 14.3172 19.2925 15.2016C20.66 15.0751 22.1521 14.8229 23.5195 14.8229C21.1572 15.4543 18.9195 16.2122 16.806 17.4754C18.2981 16.844 19.7898 16.4648 21.406 16.3387C19.2925 17.0966 17.3032 18.1068 15.4386 19.4965C16.9306 18.6117 18.5465 18.2329 20.1632 17.8542C18.1739 18.7386 16.4334 20.0014 14.6929 21.2646C16.185 20.5067 17.8009 19.7491 19.4175 19.2439C17.5524 20.2544 15.9362 21.6437 14.4445 23.0331C15.812 22.0225 17.3036 21.2646 18.9203 20.7593C17.1798 21.7699 15.6877 23.1596 14.3199 24.675C15.5631 23.6645 16.931 22.9069 18.2985 22.2751C16.8064 23.5383 15.3147 25.0542 14.0715 26.5696C15.0663 25.5591 16.4338 24.9277 17.677 24.1694C16.185 25.5591 14.8175 27.0745 13.823 28.9695C14.6933 27.9589 15.6881 27.0749 16.8068 26.4431C15.5635 28.0851 14.3203 29.8535 13.45 31.7485C14.1961 30.7376 14.9421 29.8535 15.9365 29.2221Z" fill="#FF8800"/>
<path d="M20.9414 18.5001C23.1895 20.7482 23.2293 24.3534 21.0307 26.5512C18.8325 28.7498 15.2277 28.7096 12.9796 26.4619C10.732 24.2138 10.3969 15.9178 10.3969 15.9178C10.3969 15.9178 18.6937 16.2524 20.9414 18.5001Z" fill="#FF8800"/>
<path d="M18.4457 19.8055C19.6203 20.9801 19.6414 22.864 18.4924 24.0129C17.3435 25.1619 15.46 25.1408 14.2854 23.9662C13.1107 22.7915 12.9355 18.456 12.9355 18.456C12.9355 18.456 17.271 18.6312 18.4457 19.8055Z" fill="#70491A"/>
<path d="M44.0281 18.5001C41.7804 20.7482 41.7402 24.3534 43.9388 26.5512C46.137 28.7498 49.7418 28.7096 51.9895 26.4619C54.2376 24.2138 54.5722 15.9178 54.5722 15.9178C54.5722 15.9178 46.2762 16.2524 44.0281 18.5001Z" fill="#FF8800"/>
<path d="M46.5238 19.8055C45.3492 20.9801 45.3281 22.864 46.4771 24.0129C47.626 25.1619 49.5095 25.1408 50.6841 23.9662C51.8588 22.7915 52.034 18.456 52.034 18.456C52.034 18.456 47.6985 18.6312 46.5238 19.8055Z" fill="#70491A"/>
<path d="M32.3159 53.3727C44.4403 53.3727 54.269 45.1689 54.269 35.0489C54.269 24.929 44.4403 16.7251 32.3159 16.7251C20.1915 16.7251 10.3628 24.929 10.3628 35.0489C10.3628 45.1689 20.1915 53.3727 32.3159 53.3727Z" fill="#FEFEFD"/>
<path d="M54.2633 34.9807C54.264 34.9178 54.269 34.8561 54.269 34.7932C54.269 24.6735 44.4402 16.4694 32.3159 16.4694C20.1919 16.4694 10.3628 24.6731 10.3628 34.7932C10.3628 34.8561 10.3678 34.9178 10.3685 34.9807H54.2633Z" fill="#FF8800"/>
<path d="M22.7225 34.3612C23.7439 34.3612 24.5719 33.5145 24.5719 32.47C24.5719 31.4256 23.7439 30.5789 22.7225 30.5789C21.7011 30.5789 20.8732 31.4256 20.8732 32.47C20.8732 33.5145 21.7011 34.3612 22.7225 34.3612Z" fill="black"/>
<path d="M41.4688 34.3612C42.4901 34.3612 43.3181 33.5145 43.3181 32.47C43.3181 31.4256 42.4901 30.5789 41.4688 30.5789C40.4474 30.5789 39.6194 31.4256 39.6194 32.47C39.6194 33.5145 40.4474 34.3612 41.4688 34.3612Z" fill="black"/>
<path d="M36.3696 32.9277L32.3159 37.2698L28.2622 32.9277C28.2622 32.9277 16.3234 38.0472 19.8845 44.3923C22.9161 49.794 27.7458 49.4781 28.82 48.8474C29.7228 48.3169 31.6235 46.9348 32.3163 43.4236C33.009 46.9348 34.9097 48.3172 35.813 48.8474C36.8868 49.4777 41.7164 49.794 44.7481 44.3923C48.3088 38.0468 36.3696 32.9277 36.3696 32.9277Z" fill="#FF8800"/>
<path d="M36.8756 35.9253C36.8756 36.8638 34.8342 39.6581 32.3155 39.6581C29.7972 39.6581 27.7557 36.8638 27.7557 35.9253C27.7557 34.9872 29.7972 34.2266 32.3155 34.2266C34.8342 34.2266 36.8756 34.9872 36.8756 35.9253Z" fill="#70491A"/>
<path d="M26.7287 36.4241C22.6964 36.3274 18.7067 36.9891 14.9229 38.3865C14.5787 38.5138 14.727 39.0689 15.0755 38.9405C18.8145 37.5592 22.744 36.9025 26.7287 36.9983C27.0994 37.0072 27.0986 36.4329 26.7287 36.4241Z" fill="#70491A"/>
<path d="M27.423 39.0018C23.3919 39.6727 19.6491 41.3844 16.4863 43.9687C16.1991 44.2029 16.6082 44.607 16.8927 44.3747C19.9776 41.8541 23.648 40.2098 27.5759 39.5562C27.9405 39.4952 27.7853 38.9416 27.423 39.0018Z" fill="#70491A"/>
<path d="M25.9988 41.8196C22.9054 44.1727 20.3828 47.1403 18.5806 50.5856C18.4093 50.9134 18.905 51.2036 19.0763 50.8758C20.8302 47.5233 23.2761 44.6066 26.2886 42.3152C26.5796 42.0944 26.294 41.5949 25.9988 41.8196Z" fill="#70491A"/>
<path d="M37.9031 36.4241C41.9349 36.3274 45.925 36.9891 49.7089 38.3865C50.0531 38.5138 49.9044 39.0689 49.5563 38.9405C45.8177 37.5592 41.8882 36.9025 37.9031 36.9983C37.5324 37.0072 37.5335 36.4329 37.9031 36.4241Z" fill="#70491A"/>
<path d="M37.2092 39.0018C41.2403 39.6727 44.9831 41.3844 48.1459 43.9687C48.433 44.2029 48.024 44.607 47.7395 44.3747C44.6542 41.8541 40.9838 40.2098 37.0562 39.5562C36.6913 39.4952 36.8465 38.9416 37.2092 39.0018Z" fill="#70491A"/>
<path d="M38.633 41.8196C41.7264 44.1727 44.2489 47.1403 46.0512 50.5856C46.2225 50.9134 45.7268 51.2036 45.5551 50.8758C43.8016 47.5233 41.3553 44.6066 38.3428 42.3152C38.0522 42.0944 38.3378 41.5949 38.633 41.8196Z" fill="#70491A"/>
</g>
<defs>
<clipPath id="clip0_3_5">
<rect width="64" height="64" fill="white"/>
</clipPath>
</defs>
</svg>
